<?xml version="1.0" encoding="UTF-8"?>
<svg version="1.1" xmlns="http://www.w3.org/2000/svg" width="512" height="512">
<path d="M0 0 C0.78012451 -0.0038269 1.56024902 -0.00765381 2.36401367 -0.01159668 C4.00798844 -0.01431005 5.65200681 -0.00698905 7.29589844 0.00976562 C9.80502023 0.03118614 12.31127922 0.00994727 14.8203125 -0.015625 C16.42188129 -0.01298162 18.0234483 -0.00785642 19.625 0 C20.37096436 -0.00809692 21.11692871 -0.01619385 21.88549805 -0.02453613 C26.80801729 0.06359729 29.38564093 0.98470876 32.8125 4.53125 C34.27092316 7.5493757 35.31071485 10.58859218 36.40625 13.75390625 C38.11920184 17.13698614 39.42532901 17.90445379 42.8125 19.53125 C43.90304687 20.07265625 44.99359375 20.6140625 46.1171875 21.171875 C47.29539062 21.70296875 48.47359375 22.2340625 49.6875 22.78125 C50.86054688 23.32265625 52.03359375 23.8640625 53.2421875 24.421875 C57.2845462 25.67792519 59.72704428 25.51275583 63.8125 24.53125 C64.59625 24.015625 65.38 23.5 66.1875 22.96875 C69.94975095 20.90846972 73.61947659 20.65684282 77.8125 21.53125 C83.80013167 24.77131043 88.30794815 29.73068636 93.0625 34.53125 C93.8771875 35.33820313 94.691875 36.14515625 95.53125 36.9765625 C96.30984375 37.75773437 97.0884375 38.53890625 97.890625 39.34375 C98.94878418 40.40529297 98.94878418 40.40529297 100.02832031 41.48828125 C103.60813515 45.58733579 104.23054272 48.92162775 104.15234375 54.23046875 C103.78631168 56.7085479 103.10810483 58.07444916 101.75 60.15625 C99.31517265 64.39756217 99.7910155 65.81596138 100.8125 70.53125 C101.74466442 73.35406399 102.86935317 76.05985979 104.0625 78.78125 C104.34996094 79.48765625 104.63742187 80.1940625 104.93359375 80.921875 C106.81548391 85.26090559 108.30506844 87.56055899 112.8125 89.53125 C114.80824075 90.26710972 116.80924685 90.88671936 118.84765625 91.4921875 C121.76412702 93.0344961 123.01491433 94.75848846 124.8125 97.53125 C125.20319705 100.39439593 125.37475837 102.86196907 125.34375 105.71875 C125.3475769 106.49887451 125.35140381 107.27899902 125.35534668 108.08276367 C125.35806005 109.72673844 125.35073905 111.37075681 125.33398438 113.01464844 C125.31256386 115.52377023 125.33380273 118.03002922 125.359375 120.5390625 C125.35673162 122.14063129 125.35160642 123.7421983 125.34375 125.34375 C125.35184692 126.08971436 125.35994385 126.83567871 125.36828613 127.60424805 C125.30291023 131.25569043 124.91512788 133.36854956 122.95019531 136.48364258 C120.37718933 138.94821558 118.49585303 139.37820114 115.0625 140.21875 C109.58721651 142.29882093 107.57379988 144.82778911 105.11621094 149.91918945 C102.18443853 156.66511897 100.19532598 162.09267886 100.8125 169.53125 C101.3075 170.335625 101.8025 171.14 102.3125 171.96875 C104.48190425 175.67481559 104.68622039 179.34151993 103.8125 183.53125 C100.57243957 189.51888167 95.61306364 194.02669815 90.8125 198.78125 C90.00554687 199.5959375 89.19859375 200.410625 88.3671875 201.25 C87.58601562 202.02859375 86.80484375 202.8071875 86 203.609375 C85.29230469 204.31481445 84.58460938 205.02025391 83.85546875 205.74707031 C79.76886298 209.3160133 76.45709233 209.93930407 71.16796875 209.87890625 C68.57970999 209.49689127 67.08930004 208.70466869 64.875 207.34375 C62.4713678 206.00681848 61.27302253 205.48590143 58.51171875 205.7578125 C55.86054962 206.52737036 53.36633518 207.48267962 50.8125 208.53125 C49.22888672 209.10166016 49.22888672 209.10166016 47.61328125 209.68359375 C40.2395575 212.34404533 40.2395575 212.34404533 35.8125 218.53125 C35.07664028 220.52699075 34.45703064 222.52799685 33.8515625 224.56640625 C32.3092539 227.48287702 30.58526154 228.73366433 27.8125 230.53125 C24.94935407 230.92194705 22.48178093 231.09350837 19.625 231.0625 C18.84487549 231.0663269 18.06475098 231.07015381 17.26098633 231.07409668 C15.61701156 231.07681005 13.97299319 231.06948905 12.32910156 231.05273438 C9.81997977 231.03131386 7.31372078 231.05255273 4.8046875 231.078125 C3.20311871 231.07548162 1.6015517 231.07035642 0 231.0625 C-0.74596436 231.07059692 -1.49192871 231.07869385 -2.26049805 231.08703613 C-5.90097014 231.02185665 -8.01634635 230.63942503 -11.12011719 228.67773438 C-13.60736406 226.09532123 -14.36529983 223.93506005 -15.4375 220.53125 C-17.04155635 216.2658227 -17.04155635 216.2658227 -20.08203125 213.03515625 C-22.41510686 212.02205495 -24.75924545 211.2871127 -27.1875 210.53125 C-29.2311649 209.57718537 -31.27276124 208.61867993 -33.3125 207.65625 C-38.16457181 205.60641704 -38.16457181 205.60641704 -43.25 206.09375 C-46.27374251 207.49304269 -46.27374251 207.49304269 -49.1875 209.53125 C-51.23828125 209.8671875 -51.23828125 209.8671875 -53.5 209.90625 C-54.23863281 209.93460938 -54.97726563 209.96296875 -55.73828125 209.9921875 C-63.07238886 208.61192482 -68.43374696 201.58342645 -73.4375 196.53125 C-74.65953125 195.32082031 -74.65953125 195.32082031 -75.90625 194.0859375 C-76.68484375 193.30476562 -77.4634375 192.52359375 -78.265625 191.71875 C-79.32378418 190.65720703 -79.32378418 190.65720703 -80.40332031 189.57421875 C-83.9722633 185.48761298 -84.59555407 182.17584233 -84.53515625 176.88671875 C-84.15314127 174.29845999 -83.36091869 172.80805004 -82 170.59375 C-80.66306848 168.1901178 -80.14215143 166.99177253 -80.4140625 164.23046875 C-81.18362036 161.57929962 -82.13892962 159.08508518 -83.1875 156.53125 C-83.56777344 155.47550781 -83.94804687 154.41976562 -84.33984375 153.33203125 C-87.00029533 145.9583075 -87.00029533 145.9583075 -93.1875 141.53125 C-95.18324075 140.79539028 -97.18424685 140.17578064 -99.22265625 139.5703125 C-102.13912702 138.0280039 -103.38991433 136.30401154 -105.1875 133.53125 C-105.57819705 130.66810407 -105.74975837 128.20053093 -105.71875 125.34375 C-105.7225769 124.56362549 -105.72640381 123.78350098 -105.73034668 122.97973633 C-105.73306005 121.33576156 -105.72573905 119.69174319 -105.70898438 118.04785156 C-105.68756386 115.53872977 -105.70880273 113.03247078 -105.734375 110.5234375 C-105.73173162 108.92186871 -105.72660642 107.3203017 -105.71875 105.71875 C-105.72684692 104.97278564 -105.73494385 104.22682129 -105.74328613 103.45825195 C-105.67810665 99.81777986 -105.29567503 97.70240365 -103.33398438 94.59863281 C-100.75157123 92.11138594 -98.59131005 91.35345017 -95.1875 90.28125 C-90.9220727 88.67719365 -90.9220727 88.67719365 -87.69140625 85.63671875 C-86.67830495 83.30364314 -85.9433627 80.95950455 -85.1875 78.53125 C-84.23343537 76.4875851 -83.27492993 74.44598876 -82.3125 72.40625 C-80.26266704 67.55417819 -80.26266704 67.55417819 -80.75 62.46875 C-82.14929269 59.44500749 -82.14929269 59.44500749 -84.1875 56.53125 C-84.5234375 54.48046875 -84.5234375 54.48046875 -84.5625 52.21875 C-84.59085938 51.48011719 -84.61921875 50.74148437 -84.6484375 49.98046875 C-83.26817482 42.64636114 -76.23967645 37.28500304 -71.1875 32.28125 C-70.38054687 31.4665625 -69.57359375 30.651875 -68.7421875 29.8125 C-67.57042969 28.64460938 -67.57042969 28.64460938 -66.375 27.453125 C-65.66730469 26.74768555 -64.95960938 26.04224609 -64.23046875 25.31542969 C-60.14386298 21.7464867 -56.83209233 21.12319593 -51.54296875 21.18359375 C-48.95470999 21.56560873 -47.46430004 22.35783131 -45.25 23.71875 C-42.8463678 25.05568152 -41.64802253 25.57659857 -38.88671875 25.3046875 C-36.23554962 24.53512964 -33.74133518 23.57982038 -31.1875 22.53125 C-30.13175781 22.15097656 -29.07601562 21.77070313 -27.98828125 21.37890625 C-20.6145575 18.71845467 -20.6145575 18.71845467 -16.1875 12.53125 C-15.45164028 10.53550925 -14.83203064 8.53450315 -14.2265625 6.49609375 C-11.07666693 0.53971228 -6.18196911 -0.06710097 0 0 Z " fill="#FBDD2F" transform="translate(246.1875,140.46875)"/>
<path d="M0 0 C17.28947996 15.12829496 28.72945776 34.80009525 30.44970703 58.04589844 C31.66302647 82.70826596 24.4070286 105.01078337 8.13671875 123.81640625 C-5.36548338 138.22763926 -24.64796452 148.69575722 -44.53271484 149.9465332 C-72.36398722 150.53524459 -94.58049658 145.16596047 -115.34375 125.58203125 C-122.67929559 117.90590675 -128.26651515 109.41998889 -132.59375 99.76953125 C-132.86783691 99.16616943 -133.14192383 98.56280762 -133.42431641 97.94116211 C-137.86056014 87.45637129 -139.25794083 76.70011043 -139.15625 65.39453125 C-139.14940186 64.2149585 -139.14255371 63.03538574 -139.13549805 61.82006836 C-138.97098097 52.86898359 -137.90662191 45.19012712 -134.71875 36.76953125 C-134.368125 35.74472656 -134.0175 34.71992188 -133.65625 33.6640625 C-125.99070681 13.08953164 -109.34524257 -2.97432863 -89.71875 -12.23046875 C-59.35505088 -24.95688652 -25.5527071 -20.96349965 0 0 Z " fill="#232225" transform="translate(148.71875,352.23046875)"/>
<path d="M0 0 C1.17957275 0.00684814 2.35914551 0.01369629 3.57446289 0.02075195 C12.52554766 0.18526903 20.20440413 1.24962809 28.625 4.4375 C29.64980469 4.788125 30.67460938 5.13875 31.73046875 5.5 C52.30499961 13.16554319 68.36885988 29.81100743 77.625 49.4375 C86.40425168 70.38373652 87.90699064 94.43685286 79.26635742 115.68847656 C69.75432291 137.68782453 53.67624543 155.01038806 31.3125 164.25 C8.62660447 172.30158882 -15.42974443 171.53011754 -37.375 161.4375 C-58.02385694 151.11307153 -72.86632426 134.57023271 -80.65234375 112.87890625 C-87.53059592 91.31399466 -86.56483995 67.50238974 -76.625 47.125 C-66.15115053 26.87913182 -50.01388028 11.87776468 -28.48242188 4.10083008 C-18.98794158 1.11235661 -9.93339929 -0.08934841 0 0 Z " fill="#242224" transform="translate(94.375,9.5625)"/>
<path d="M0 0 C16.16626011 13.2934688 26.42844348 31.56655581 30.04150391 52.24536133 C31.72564214 78.81293235 27.46091062 101.45445654 10.04150391 122.24536133 C-3.49120521 137.49728939 -23.37103941 148.95496162 -43.93994141 150.46411133 C-68.60557967 151.65174362 -91.14010283 147.14877133 -109.95849609 130.24536133 C-110.98974609 129.46161133 -112.02099609 128.67786133 -113.08349609 127.87036133 C-128.89966732 113.42950934 -138.11779984 92.08767904 -139.21240234 70.90551758 C-140.00963304 47.44554586 -133.05155066 26.70356661 -117.45849609 8.93286133 C-115.97551271 7.3542016 -114.476524 5.79035243 -112.95849609 4.24536133 C-112.34619141 3.62016602 -111.73388672 2.9949707 -111.10302734 2.35083008 C-80.73123947 -26.33723395 -31.75373829 -25.05285435 0 0 Z " fill="#242224" transform="translate(471.95849609375,351.754638671875)"/>
<path d="M0 0 C15.44534836 12.90807422 28.56832251 32.47226737 30.44921875 53.046875 C31.95747542 77.40940983 28.84433955 101.00808074 12.2421875 120.05078125 C11.65050781 120.70949219 11.05882812 121.36820313 10.44921875 122.046875 C9.66546875 123.078125 8.88171875 124.109375 8.07421875 125.171875 C-5.51910869 140.05980506 -26.3992659 149.92763686 -46.51464844 151.16796875 C-70.69922407 152.2647749 -92.35308429 145.75803465 -110.80078125 129.609375 C-127.79070537 113.69306378 -137.62874544 93.84608045 -138.83203125 70.5625 C-139.56566251 46.63640738 -131.49025498 24.09642726 -115.0078125 6.51708984 C-84.08393529 -24.68659456 -34.35838668 -26.50063905 0 0 Z " fill="#232225" transform="translate(471.55078125,27.953125)"/>
<path d="M0 0 C10.8974127 8.94675707 17.80585685 21.73029499 22 35 C22.24492187 35.75410156 22.48984375 36.50820312 22.7421875 37.28515625 C27.26824223 53.87035678 23.37473445 73.07585655 14.97021484 87.8046875 C4.25994967 105.18051202 -11.07240156 116.45728291 -30.765625 121.7421875 C-48.44890671 125.51668915 -66.93935943 122.34309083 -82.35546875 112.95703125 C-98.50234359 102.39242127 -110.06998093 87.39182011 -114.75 68.5 C-118.66642501 48.39856998 -114.6665247 29.42476967 -103.23828125 12.37109375 C-101.57277802 10.15915575 -99.8372588 8.0705615 -98 6 C-97.50371094 5.41089844 -97.00742188 4.82179687 -96.49609375 4.21484375 C-87.94783433 -5.19038403 -75.94552132 -11.22439034 -64 -15 C-63.24589844 -15.24492187 -62.49179688 -15.48984375 -61.71484375 -15.7421875 C-39.82310439 -21.71638179 -17.09034242 -13.54636964 0 0 Z " fill="#252526" transform="translate(302,203)"/>
<path d="M0 0 C0.78012451 -0.0038269 1.56024902 -0.00765381 2.36401367 -0.01159668 C4.00798844 -0.01431005 5.65200681 -0.00698905 7.29589844 0.00976562 C9.80502023 0.03118614 12.31127922 0.00994727 14.8203125 -0.015625 C16.42188129 -0.01298162 18.0234483 -0.00785642 19.625 0 C20.37096436 -0.00809692 21.11692871 -0.01619385 21.88549805 -0.02453613 C26.80801729 0.06359729 29.38564093 0.98470876 32.8125 4.53125 C34.27092316 7.5493757 35.31071485 10.58859218 36.40625 13.75390625 C38.11920184 17.13698614 39.42532901 17.90445379 42.8125 19.53125 C43.90304687 20.07265625 44.99359375 20.6140625 46.1171875 21.171875 C47.29539062 21.70296875 48.47359375 22.2340625 49.6875 22.78125 C50.86054688 23.32265625 52.03359375 23.8640625 53.2421875 24.421875 C57.2845462 25.67792519 59.72704428 25.51275583 63.8125 24.53125 C64.59625 24.015625 65.38 23.5 66.1875 22.96875 C69.94975095 20.90846972 73.61947659 20.65684282 77.8125 21.53125 C83.80013167 24.77131043 88.30794815 29.73068636 93.0625 34.53125 C93.8771875 35.33820313 94.691875 36.14515625 95.53125 36.9765625 C96.30984375 37.75773437 97.0884375 38.53890625 97.890625 39.34375 C98.94878418 40.40529297 98.94878418 40.40529297 100.02832031 41.48828125 C103.60813515 45.58733579 104.23054272 48.92162775 104.15234375 54.23046875 C103.78631168 56.7085479 103.10810483 58.07444916 101.75 60.15625 C99.31517265 64.39756217 99.7910155 65.81596138 100.8125 70.53125 C101.74466442 73.35406399 102.86935317 76.05985979 104.0625 78.78125 C104.34996094 79.48765625 104.63742187 80.1940625 104.93359375 80.921875 C106.81548391 85.26090559 108.30506844 87.56055899 112.8125 89.53125 C114.80824075 90.26710972 116.80924685 90.88671936 118.84765625 91.4921875 C121.76412702 93.0344961 123.01491433 94.75848846 124.8125 97.53125 C125.20319705 100.39439593 125.37475837 102.86196907 125.34375 105.71875 C125.3475769 106.49887451 125.35140381 107.27899902 125.35534668 108.08276367 C125.35806005 109.72673844 125.35073905 111.37075681 125.33398438 113.01464844 C125.31256386 115.52377023 125.33380273 118.03002922 125.359375 120.5390625 C125.35673162 122.14063129 125.35160642 123.7421983 125.34375 125.34375 C125.35184692 126.08971436 125.35994385 126.83567871 125.36828613 127.60424805 C125.30291023 131.25569043 124.91512788 133.36854956 122.95019531 136.48364258 C120.37718933 138.94821558 118.49585303 139.37820114 115.0625 140.21875 C109.58721651 142.29882093 107.57379988 144.82778911 105.11621094 149.91918945 C102.18443853 156.66511897 100.19532598 162.09267886 100.8125 169.53125 C101.3075 170.335625 101.8025 171.14 102.3125 171.96875 C104.48190425 175.67481559 104.68622039 179.34151993 103.8125 183.53125 C100.57243957 189.51888167 95.61306364 194.02669815 90.8125 198.78125 C90.00554687 199.5959375 89.19859375 200.410625 88.3671875 201.25 C87.58601562 202.02859375 86.80484375 202.8071875 86 203.609375 C85.29230469 204.31481445 84.58460938 205.02025391 83.85546875 205.74707031 C79.76886298 209.3160133 76.45709233 209.93930407 71.16796875 209.87890625 C68.57970999 209.49689127 67.08930004 208.70466869 64.875 207.34375 C62.4713678 206.00681848 61.27302253 205.48590143 58.51171875 205.7578125 C55.86054962 206.52737036 53.36633518 207.48267962 50.8125 208.53125 C49.22888672 209.10166016 49.22888672 209.10166016 47.61328125 209.68359375 C40.2395575 212.34404533 40.2395575 212.34404533 35.8125 218.53125 C35.07664028 220.52699075 34.45703064 222.52799685 33.8515625 224.56640625 C32.3092539 227.48287702 30.58526154 228.73366433 27.8125 230.53125 C24.94935407 230.92194705 22.48178093 231.09350837 19.625 231.0625 C18.84487549 231.0663269 18.06475098 231.07015381 17.26098633 231.07409668 C15.61701156 231.07681005 13.97299319 231.06948905 12.32910156 231.05273438 C9.81997977 231.03131386 7.31372078 231.05255273 4.8046875 231.078125 C3.20311871 231.07548162 1.6015517 231.07035642 0 231.0625 C-0.74596436 231.07059692 -1.49192871 231.07869385 -2.26049805 231.08703613 C-5.90097014 231.02185665 -8.01634635 230.63942503 -11.12011719 228.67773438 C-13.60736406 226.09532123 -14.36529983 223.93506005 -15.4375 220.53125 C-17.04155635 216.2658227 -17.04155635 216.2658227 -20.08203125 213.03515625 C-22.41510686 212.02205495 -24.75924545 211.2871127 -27.1875 210.53125 C-29.2311649 209.57718537 -31.27276124 208.61867993 -33.3125 207.65625 C-38.16457181 205.60641704 -38.16457181 205.60641704 -43.25 206.09375 C-46.27374251 207.49304269 -46.27374251 207.49304269 -49.1875 209.53125 C-51.23828125 209.8671875 -51.23828125 209.8671875 -53.5 209.90625 C-54.23863281 209.93460938 -54.97726563 209.96296875 -55.73828125 209.9921875 C-63.07238886 208.61192482 -68.43374696 201.58342645 -73.4375 196.53125 C-74.65953125 195.32082031 -74.65953125 195.32082031 -75.90625 194.0859375 C-76.68484375 193.30476562 -77.4634375 192.52359375 -78.265625 191.71875 C-79.32378418 190.65720703 -79.32378418 190.65720703 -80.40332031 189.57421875 C-83.9722633 185.48761298 -84.59555407 182.17584233 -84.53515625 176.88671875 C-84.15314127 174.29845999 -83.36091869 172.80805004 -82 170.59375 C-80.66306848 168.1901178 -80.14215143 166.99177253 -80.4140625 164.23046875 C-81.18362036 161.57929962 -82.13892962 159.08508518 -83.1875 156.53125 C-83.56777344 155.47550781 -83.94804687 154.41976562 -84.33984375 153.33203125 C-87.00029533 145.9583075 -87.00029533 145.9583075 -93.1875 141.53125 C-95.18324075 140.79539028 -97.18424685 140.17578064 -99.22265625 139.5703125 C-102.13912702 138.0280039 -103.38991433 136.30401154 -105.1875 133.53125 C-105.57819705 130.66810407 -105.74975837 128.20053093 -105.71875 125.34375 C-105.7225769 124.56362549 -105.72640381 123.78350098 -105.73034668 122.97973633 C-105.73306005 121.33576156 -105.72573905 119.69174319 -105.70898438 118.04785156 C-105.68756386 115.53872977 -105.70880273 113.03247078 -105.734375 110.5234375 C-105.73173162 108.92186871 -105.72660642 107.3203017 -105.71875 105.71875 C-105.72684692 104.97278564 -105.73494385 104.22682129 -105.74328613 103.45825195 C-105.67810665 99.81777986 -105.29567503 97.70240365 -103.33398438 94.59863281 C-100.75157123 92.11138594 -98.59131005 91.35345017 -95.1875 90.28125 C-90.9220727 88.67719365 -90.9220727 88.67719365 -87.69140625 85.63671875 C-86.67830495 83.30364314 -85.9433627 80.95950455 -85.1875 78.53125 C-84.23343537 76.4875851 -83.27492993 74.44598876 -82.3125 72.40625 C-80.26266704 67.55417819 -80.26266704 67.55417819 -80.75 62.46875 C-82.14929269 59.44500749 -82.14929269 59.44500749 -84.1875 56.53125 C-84.5234375 54.48046875 -84.5234375 54.48046875 -84.5625 52.21875 C-84.59085938 51.48011719 -84.61921875 50.74148437 -84.6484375 49.98046875 C-83.26817482 42.64636114 -76.23967645 37.28500304 -71.1875 32.28125 C-70.38054687 31.4665625 -69.57359375 30.651875 -68.7421875 29.8125 C-67.57042969 28.64460938 -67.57042969 28.64460938 -66.375 27.453125 C-65.66730469 26.74768555 -64.95960938 26.04224609 -64.23046875 25.31542969 C-60.14386298 21.7464867 -56.83209233 21.12319593 -51.54296875 21.18359375 C-48.95470999 21.56560873 -47.46430004 22.35783131 -45.25 23.71875 C-42.8463678 25.05568152 -41.64802253 25.57659857 -38.88671875 25.3046875 C-36.23554962 24.53512964 -33.74133518 23.57982038 -31.1875 22.53125 C-30.13175781 22.15097656 -29.07601562 21.77070313 -27.98828125 21.37890625 C-20.6145575 18.71845467 -20.6145575 18.71845467 -16.1875 12.53125 C-15.45164028 10.53550925 -14.83203064 8.53450315 -14.2265625 6.49609375 C-11.07666693 0.53971228 -6.18196911 -0.06710097 0 0 Z M-3.1875 12.53125 C-4.1775 15.50125 -5.1675 18.47125 -6.1875 21.53125 C-9.36665146 27.12655658 -14.51457644 29.03749697 -20.1875 31.53125 C-21.37601562 32.07523438 -22.56453125 32.61921875 -23.7890625 33.1796875 C-31.14332989 36.42999417 -38.02310615 38.9980733 -46.1875 37.53125 C-49.625 35.96875 -49.625 35.96875 -52.1875 34.53125 C-57.4145399 35.10034157 -60.46225561 39.25347109 -64 42.78125 C-64.70576172 43.45027344 -65.41152344 44.11929688 -66.13867188 44.80859375 C-66.80060547 45.46472656 -67.46253906 46.12085938 -68.14453125 46.796875 C-69.05682495 47.69067871 -69.05682495 47.69067871 -69.98754883 48.60253906 C-71.43484756 50.5061144 -71.43484756 50.5061144 -71.00268555 53.01464844 C-70.2751853 55.49697312 -70.2751853 55.49697312 -69.14941406 57.52880859 C-66.82342356 62.37088324 -67.59498212 68.36775109 -68.97460938 73.40527344 C-70.03311059 76.28983821 -71.20011154 79.09400349 -72.4375 81.90625 C-72.83324219 82.86402344 -73.22898438 83.82179688 -73.63671875 84.80859375 C-76.531379 91.63239939 -79.27563741 97.1556892 -86.1875 100.53125 C-89.6525 101.52125 -89.6525 101.52125 -93.1875 102.53125 C-93.1875 111.11125 -93.1875 119.69125 -93.1875 128.53125 C-90.2175 129.52125 -87.2475 130.51125 -84.1875 131.53125 C-78.09607521 135.4377072 -76.09088751 141.13923719 -73.1875 147.53125 C-72.69507813 148.54316406 -72.20265625 149.55507813 -71.6953125 150.59765625 C-68.39325231 157.75212 -66.24534186 164.88324417 -68.91015625 172.6328125 C-69.6592047 174.27026724 -70.422392 175.90123731 -71.1875 177.53125 C-70.62771693 182.75610898 -66.46283305 185.80845839 -62.9375 189.34375 C-62.26847656 190.04951172 -61.59945312 190.75527344 -60.91015625 191.48242188 C-60.25402344 192.14435547 -59.59789062 192.80628906 -58.921875 193.48828125 C-58.32600586 194.09647705 -57.73013672 194.70467285 -57.11621094 195.33129883 C-55.2126356 196.77859756 -55.2126356 196.77859756 -52.70410156 196.34643555 C-50.22177688 195.6189353 -50.22177688 195.6189353 -48.18994141 194.49316406 C-43.34786676 192.16717356 -37.35099891 192.93873212 -32.31347656 194.31835938 C-29.42891179 195.37686059 -26.62474651 196.54386154 -23.8125 197.78125 C-22.85472656 198.17699219 -21.89695312 198.57273437 -20.91015625 198.98046875 C-8.91658805 204.06814372 -8.91658805 204.06814372 -5.9375 210.53125 C-5.62296875 211.19125 -5.3084375 211.85125 -4.984375 212.53125 C-4.1875 214.53125 -4.1875 214.53125 -3.1875 218.53125 C5.3925 218.53125 13.9725 218.53125 22.8125 218.53125 C23.8025 215.56125 24.7925 212.59125 25.8125 209.53125 C29.7199331 203.43830347 35.42072219 201.43798705 41.8125 198.53125 C42.8128125 198.03882813 43.813125 197.54640625 44.84375 197.0390625 C51.88541735 193.75912797 58.05099528 192.41423819 65.8125 193.53125 C69.3125 195.09375 69.3125 195.09375 71.8125 196.53125 C77.03982188 195.96097259 80.0869319 191.80935171 83.625 188.28125 C84.33076172 187.61222656 85.03652344 186.94320312 85.76367188 186.25390625 C86.75657227 185.26970703 86.75657227 185.26970703 87.76953125 184.265625 C88.37772705 183.66975586 88.98592285 183.07388672 89.61254883 182.45996094 C91.07745524 180.53910729 91.07745524 180.53910729 90.5690918 177.93457031 C89.8742617 175.52237437 89.8742617 175.52237437 88.75 173.34375 C85.88071358 164.73589073 88.58385178 157.19565023 92.0625 149.21875 C92.45824219 148.25646484 92.85398437 147.29417969 93.26171875 146.30273438 C98.34438561 134.26264647 98.34438561 134.26264647 104.8125 131.28125 C105.4725 130.96671875 106.1325 130.6521875 106.8125 130.328125 C108.8125 129.53125 108.8125 129.53125 112.8125 128.53125 C112.8125 119.95125 112.8125 111.37125 112.8125 102.53125 C109.8425 101.54125 106.8725 100.55125 103.8125 99.53125 C98.21719342 96.35209854 96.30625303 91.20417356 93.8125 85.53125 C93.26851562 84.34273438 92.72453125 83.15421875 92.1640625 81.9296875 C88.91375583 74.57542011 86.3456767 67.69564385 87.8125 59.53125 C89.375 56.09375 89.375 56.09375 90.8125 53.53125 C90.24340843 48.3042101 86.09027891 45.25649439 82.5625 41.71875 C81.89347656 41.01298828 81.22445312 40.30722656 80.53515625 39.58007812 C79.87902344 38.91814453 79.22289062 38.25621094 78.546875 37.57421875 C77.95100586 36.96602295 77.35513672 36.35782715 76.74121094 35.73120117 C74.82294972 34.26733116 74.82294972 34.26733116 72.23486328 34.77709961 C69.77491602 35.50409869 69.77491602 35.50409869 67.3203125 36.5546875 C58.8448799 39.8550896 50.99185805 37.23554714 43 33.90625 C42.19997559 33.5757666 41.39995117 33.2452832 40.57568359 32.90478516 C35.09901753 30.48173386 30.91316373 27.9395896 26.8125 23.53125 C25.4925 19.90125 24.1725 16.27125 22.8125 12.53125 C14.2325 12.53125 5.6525 12.53125 -3.1875 12.53125 Z " fill="#232223" transform="translate(246.1875,140.46875)"/>
<path d="M0 0 C0.95261719 0.31710937 1.90523438 0.63421875 2.88671875 0.9609375 C22.60982328 8.23141525 35.56636866 23.18423244 44.31640625 41.80078125 C51.2308218 58.20657165 51.30708538 77.39752524 45 94 C41.49321782 102.48219755 37.04223602 110.05785649 31 117 C28.69242973 114.04299379 26.78297719 110.97604839 24.875 107.75 C18.06100406 97.09693359 9.18784227 92.09261668 -2 87 C-1.113125 86.071875 -0.22625 85.14375 0.6875 84.1875 C7.50145419 76.29170948 10.43523001 66.81578958 10.34375 56.55859375 C9.52374768 48.06970608 5.60087392 39.54770078 -1 34 C-3.89543252 32.08337741 -6.85203075 30.46175268 -10 29 C-10.75023437 28.63519531 -11.50046875 28.27039063 -12.2734375 27.89453125 C-20.48209801 25.20143203 -30.77290719 25.85071046 -38.5625 29.4375 C-45.94096757 33.7491971 -52.24844835 40.16226652 -55.36328125 48.23828125 C-57.99377966 59.64786637 -56.522133 68.94726442 -50.921875 79.046875 C-49.09578444 81.85281903 -47.14762847 84.43424917 -45 87 C-45.97839844 87.47308594 -46.95679688 87.94617188 -47.96484375 88.43359375 C-60.21606354 94.53652489 -68.69932636 101.53366716 -75 114 C-75.33 114.99 -75.66 115.98 -76 117 C-76.66 117 -77.32 117 -78 117 C-93.58926731 98.83930715 -96.34872003 78.00553112 -95 55 C-94.42985827 50.33813075 -92.97842142 46.25388629 -91 42 C-90.73687012 41.41105957 -90.47374023 40.82211914 -90.20263672 40.21533203 C-80.87152536 19.67843781 -64.88976845 6.98741649 -44.1796875 -1.1015625 C-30.87177083 -5.25301172 -13.03468552 -4.80739526 0 0 Z " fill="#FC5C5C" transform="translate(441,349)"/>
<path d="M0 0 C1.01964844 -0.00322266 2.03929688 -0.00644531 3.08984375 -0.00976562 C22.92575885 0.13028256 39.87088491 8.5690368 53.875 22.3125 C54.81666016 23.21742188 54.81666016 23.21742188 55.77734375 24.140625 C61.62250736 30.23762105 65.33925369 37.72617067 68.875 45.3125 C69.33519531 46.29605469 69.79539063 47.27960938 70.26953125 48.29296875 C73.10800851 55.7251654 73.24764516 62.98703043 73.3125 70.875 C73.32796875 72.43613525 73.32796875 72.43613525 73.34375 74.02880859 C73.17604428 88.81719197 68.51141601 102.40944949 60.1875 114.5625 C59.79481934 115.13605225 59.40213867 115.70960449 58.99755859 116.30053711 C58.01343136 117.68013692 56.95029387 119.00271179 55.875 120.3125 C55.215 120.3125 54.555 120.3125 53.875 120.3125 C53.61847656 119.70664062 53.36195313 119.10078125 53.09765625 118.4765625 C46.74165879 104.56613035 36.3682444 96.69112463 22.875 90.3125 C23.43767578 89.63767578 23.43767578 89.63767578 24.01171875 88.94921875 C32.23193427 78.61700831 35.20245077 69.60175712 33.875 56.3125 C32.19941496 46.90450205 26.62387817 40.21347342 19.09765625 34.63671875 C13.46265038 31.27948327 8.53784744 29.79973681 2 29.9375 C1.29673584 29.94837646 0.59347168 29.95925293 -0.13110352 29.97045898 C-10.01287065 30.27274091 -17.11251975 33.24729433 -24.125 40.3125 C-30.83067771 49.36803058 -33.34601262 58.08172763 -32.125 69.3125 C-29.93786019 77.38734208 -26.06719147 83.49017983 -20.125 89.3125 C-22.4782124 91.6657124 -24.66175016 92.55407926 -27.6875 93.9375 C-37.29029191 98.70443618 -43.1770546 104.59858265 -48.6171875 113.796875 C-49.99556367 116.09654924 -51.47709397 118.20081204 -53.125 120.3125 C-67.43926511 102.6582397 -73.05589797 84.00869347 -71.125 61.3125 C-68.65591015 42.43942171 -57.06100544 24.9983065 -42.27734375 13.44921875 C-38.67210364 11.00551821 -35.00138005 8.91541362 -31.125 6.9375 C-30.497146 6.61563721 -29.86929199 6.29377441 -29.22241211 5.9621582 C-19.696231 1.3579794 -10.52133353 -0.16753716 0 0 Z " fill="#2EAFD2" transform="translate(93.125,345.6875)"/>
<path d="M0 0 C1.56234375 0.49306641 1.56234375 0.49306641 3.15625 0.99609375 C21.32904645 7.2484011 35.01679787 20.21834347 44 37 C45.96824247 41.25734198 47.58195162 45.53136016 49 50 C49.24492187 50.71929687 49.48984375 51.43859375 49.7421875 52.1796875 C54.42280301 68.65801883 50.49216578 88.09601338 43 103 C36.98976942 113.66984754 36.98976942 113.66984754 32 117 C31.5153125 116.154375 31.030625 115.30875 30.53125 114.4375 C23.13667488 101.92360365 14.90419646 93.28507645 1 88 C2.39898717 85.02798898 4.04330352 82.42983013 5.9375 79.75 C11.76728912 70.95542815 13.03286557 63.6409174 12 53 C10.13691935 44.18141825 4.29708191 36.55702415 -3.15234375 31.5546875 C-5.08672769 30.55222366 -6.94821859 29.73022781 -9 29 C-10.40958984 28.47019531 -10.40958984 28.47019531 -11.84765625 27.9296875 C-19.85197403 25.56905846 -28.18513101 26.23998395 -35.72265625 29.74609375 C-43.98878482 34.29742697 -49.53735355 39.96145597 -53.140625 48.796875 C-55.44495513 57.38574184 -55.13535385 67.73418961 -51.35546875 75.8125 C-49.374287 79.0097962 -47.01242711 81.71835204 -44.390625 84.40625 C-43 86 -43 86 -43 88 C-43.90621094 88.4125 -44.81242187 88.825 -45.74609375 89.25 C-59.67947296 95.76821495 -66.99895257 103.41758646 -74 117 C-81.31550772 114.15063375 -84.76997087 104.89533808 -87.75 98.125 C-94.95323502 79.46315349 -96.16590463 58.53825318 -88 40 C-78.5131926 20.58888681 -63.40473477 7.33697589 -43.41015625 -0.38671875 C-29.48464408 -4.69591633 -13.80209855 -4.78808756 0 0 Z " fill="#88DD8E" transform="translate(439,25)"/>
<path d="M0 0 C1.07121094 0.85851562 1.07121094 0.85851562 2.1640625 1.734375 C2.85757813 2.26546875 3.55109375 2.7965625 4.265625 3.34375 C16.68889937 13.41667517 25.0519799 29.16230627 28.1640625 44.734375 C28.57145362 48.66286053 28.64252125 52.53697507 28.6015625 56.484375 C28.59253906 57.53496094 28.58351562 58.58554688 28.57421875 59.66796875 C28.20791356 76.21275333 22.66225599 93.44058987 11.1640625 105.734375 C10.5040625 105.734375 9.8440625 105.734375 9.1640625 105.734375 C8.82375 105.04472656 8.4834375 104.35507813 8.1328125 103.64453125 C1.37722234 90.54659181 -7.66471326 81.45811641 -21.8359375 76.734375 C-20.48704934 73.81716232 -18.92069025 71.47488474 -16.8984375 68.984375 C-10.28515336 60.12354441 -9.86975527 51.42751544 -10.8359375 40.734375 C-11.68956464 37.33433471 -12.94995226 34.67533324 -14.8359375 31.734375 C-15.2484375 31.03957031 -15.6609375 30.34476563 -16.0859375 29.62890625 C-20.96258736 22.24466087 -28.41018557 18.06310041 -36.8359375 15.734375 C-46.95854694 14.70292428 -55.18112888 15.65726629 -63.49609375 21.65234375 C-70.62595748 27.58514641 -76.22389413 35.168024 -77.109375 44.66796875 C-77.40362701 54.8196631 -75.59571685 63.34358748 -69.1484375 71.421875 C-67.05993217 73.75413924 -67.05993217 73.75413924 -64.8359375 74.734375 C-64.8359375 75.394375 -64.8359375 76.054375 -64.8359375 76.734375 C-65.45339844 76.94191406 -66.07085937 77.14945312 -66.70703125 77.36328125 C-80.58394822 82.41135302 -90.37765577 92.60046553 -96.8359375 105.734375 C-107.66259134 98.00910637 -113.19997225 81.98387085 -115.4453125 69.2890625 C-117.66660909 49.0752635 -113.74271169 30.34659053 -101.3984375 13.859375 C-100.23181232 12.46661983 -99.04459431 11.09081518 -97.8359375 9.734375 C-97.26617187 9.07179688 -96.69640625 8.40921875 -96.109375 7.7265625 C-71.42147124 -19.06243946 -28.71337209 -21.70308392 0 0 Z " fill="#FDB34B" transform="translate(137.8359375,36.265625)"/>
<path d="M0 0 C12.53324049 10.78861342 21.64204003 24.78282465 23.02734375 41.62109375 C23.4280976 56.2566242 19.31264466 71.87820636 9.75 83.25 C9.09 83.25 8.43 83.25 7.75 83.25 C7.47027344 82.68152344 7.19054687 82.11304688 6.90234375 81.52734375 C2.04106092 72.16429417 -3.83012202 66.89279118 -13.25 62.25 C-13.91 61.92 -14.57 61.59 -15.25 61.25 C-14.16084237 59.00295149 -13.01089035 56.84425693 -11.7421875 54.69140625 C-7.50094003 47.14116618 -5.71282516 40.88102902 -7.25 32.25 C-9.92448876 24.11994177 -13.76469293 18.44943409 -21.25 14.25 C-22.301875 13.63125 -23.35375 13.0125 -24.4375 12.375 C-32.83099774 9.89823018 -41.17352876 10.34530997 -49.10546875 14.07421875 C-56.81298698 18.30001654 -60.37364084 23.95356271 -63.25 32.25 C-65.01375269 42.03294824 -62.16557628 48.90880191 -57.25 57.25 C-56.57183384 58.57752133 -55.90020326 59.90856124 -55.25 61.25 C-55.96285156 61.60191406 -56.67570312 61.95382812 -57.41015625 62.31640625 C-67.54860472 67.54255129 -73.21685204 73.02134447 -78.25 83.25 C-78.91 83.25 -79.57 83.25 -80.25 83.25 C-90.62597229 70.44338433 -94.43198373 54.41487604 -93.25 38.25 C-89.9169693 20.51827666 -80.7006038 7.16520907 -65.95703125 -3.0625 C-62.19841881 -5.40553113 -58.39629862 -7.21041171 -54.25 -8.75 C-52.703125 -9.3378125 -52.703125 -9.3378125 -51.125 -9.9375 C-33.94601353 -14.79243096 -14.1454171 -10.8794263 0 0 Z " fill="#C6F0FC" transform="translate(291.25,209.75)"/>
<path d="M0 0 C1.76053711 -0.04350586 1.76053711 -0.04350586 3.55664062 -0.08789062 C15.8579178 -0.17629118 26.1075131 2.61533422 35.0625 11.3125 C40.5481006 17.06543006 43.3630198 22.55963319 45.0625 30.3125 C27.18925824 42.87207529 7.28846284 47.27295799 -14.42041016 43.93017578 C-24.03324498 41.81767355 -34.8897995 37.3602005 -41.9375 30.3125 C-41.9375 22.26216029 -37.01338978 16.39951733 -31.8125 10.625 C-22.69431956 1.85437353 -12.03895436 0.09631163 0 0 Z " fill="#DA71A7" transform="translate(92.9375,121.6875)"/>
<path d="M0 0 C7.77960217 5.66486525 14.28880444 12.50616162 17.1875 21.8125 C17 25 17 25 14.84765625 27.0078125 C-1.5377188 38.47083208 -21.84426215 41.78810637 -41.45166016 38.6015625 C-51.83305507 36.23127694 -62.64139172 31.848057 -70 24 C-65.39652299 10.78531307 -58.42160382 2.91305807 -45.859375 -3.23828125 C-33.2599035 -8.39982945 -11.48243513 -7.44103425 0 0 Z " fill="#FC5C5C" transform="translate(444,127)"/>
<path d="M0 0 C1.40121233 -0.0164148 2.80234611 -0.04350942 4.203125 -0.08203125 C16.02303124 -0.4046346 25.60487748 1.42206048 35.06323242 9.03759766 C41.20839228 14.95929716 45.81097587 21.673197 46.18823242 30.35009766 C30.59064082 41.96240154 11.18789464 46.42636341 -8.0065918 44.08203125 C-19.79027695 42.09891642 -30.90767391 36.95282677 -40.81176758 30.35009766 C-40.34682436 21.51617648 -34.21377919 13.98960871 -28.03442383 8.10791016 C-19.3223926 1.21790303 -10.72940287 0.09167253 0 0 Z " fill="#88DD8D" transform="translate(414.811767578125,445.64990234375)"/>
<path d="M0 0 C1.83111328 -0.04350586 1.83111328 -0.04350586 3.69921875 -0.08789062 C16.07174315 -0.17390283 25.6096459 2.99382338 34.875 11.3125 C39.57135282 16.12390824 44.375 23.45247922 44.375 30.3125 C35.97837117 35.42997201 27.971776 39.80784692 18.375 42.3125 C17.5190625 42.53679687 16.663125 42.76109375 15.78125 42.9921875 C-3.6184653 47.25778755 -21.63322472 43.09014372 -38.625 33.3125 C-39.98002656 32.34209762 -41.3238609 31.35404444 -42.625 30.3125 C-42.2427121 21.51987831 -37.58033292 14.81879546 -31.25 8.9375 C-21.38078751 0.71315625 -12.53319078 0.09740822 0 0 Z " fill="#FCB34B" transform="translate(93.625,445.6875)"/>
<path d="M0 0 C2.6539553 2.6539553 2.27151383 3.93525003 2.31884766 7.64306641 C2.33871735 8.82413971 2.35858704 10.00521301 2.37905884 11.22207642 C2.39061005 12.50230682 2.40216125 13.78253723 2.4140625 15.1015625 C2.43342865 16.40829926 2.4527948 17.71503601 2.4727478 19.06137085 C2.5241417 22.53667109 2.56372822 26.01201012 2.60089111 29.48748779 C2.64088553 33.03342341 2.69199859 36.57919662 2.7421875 40.125 C2.83903247 47.08321476 2.92340966 54.04153365 3 61 C3.39268066 60.58113525 3.78536133 60.16227051 4.18994141 59.73071289 C5.98820407 57.82808441 7.80612276 55.94542222 9.625 54.0625 C10.24246094 53.40314453 10.85992187 52.74378906 11.49609375 52.06445312 C14.37921427 49.10546102 16.29661552 47.22971078 20.27734375 45.9296875 C23 46 23 46 25.9375 48.0625 C28 51 28 51 27.98657227 53.77783203 C26.67048324 58.07620941 24.4130595 60.36044497 21.27734375 63.4921875 C20.69843887 64.08299103 20.119534 64.67379456 19.52308655 65.28250122 C18.29794844 66.52414314 17.06620713 67.75929991 15.82836914 68.98828125 C13.94471314 70.8678027 12.09836425 72.77927654 10.25195312 74.6953125 C9.0542007 75.90054543 7.8543951 77.10374211 6.65234375 78.3046875 C6.10617905 78.87645721 5.56001434 79.44822693 4.99729919 80.037323 C2.16688091 82.78582217 0.00772057 84.39255347 -4 84.71191406 C-8.85494793 84.32504102 -11.40780556 81.70133445 -14.65234375 78.3046875 C-15.53074669 77.42709274 -15.53074669 77.42709274 -16.42689514 76.5317688 C-17.65565125 75.29533855 -18.87464595 74.04913905 -20.08422852 72.79394531 C-21.9338037 70.87882728 -23.81574248 69.00081757 -25.70507812 67.125 C-26.89790572 65.91610384 -28.08873232 64.70522932 -29.27734375 63.4921875 C-30.11784523 62.65275101 -30.11784523 62.65275101 -30.97532654 61.7963562 C-34.22921349 58.38160386 -35.97612353 55.93939137 -36 51 C-33.9375 48.0625 -33.9375 48.0625 -31 46 C-26.61341517 45.8867166 -24.41988916 47.24955299 -21.3515625 50.16015625 C-20.09636366 51.44838664 -18.85442957 52.74965402 -17.625 54.0625 C-16.98433594 54.72572266 -16.34367187 55.38894531 -15.68359375 56.07226562 C-14.1104608 57.70409756 -12.55020766 59.34642396 -11 61 C-10.99635437 60.26750534 -10.99270874 59.53501068 -10.98895264 58.78031921 C-10.95109486 51.87913496 -10.89426768 44.97833994 -10.81609726 38.07750225 C-10.77657782 34.52959524 -10.7444118 30.98193805 -10.72900391 27.43383789 C-10.71097082 23.35522462 -10.66104061 19.27754562 -10.609375 15.19921875 C-10.60814636 13.92414963 -10.60691772 12.64908051 -10.60565186 11.33537292 C-10.58593323 10.15437515 -10.5662146 8.97337738 -10.54589844 7.7565918 C-10.53701599 6.71512497 -10.52813354 5.67365814 -10.51898193 4.60063171 C-10 2 -10 2 -8.16119385 0.12849426 C-5.10914027 -1.4651735 -3.24872431 -0.91811774 0 0 Z " fill="#212023" transform="translate(260,418)"/>
<path d="M0 0 C4.29837738 1.31608903 6.58261294 3.57351276 9.71435547 6.70922852 C10.305159 7.28813339 10.89596252 7.86703827 11.50466919 8.46348572 C12.74631111 9.68862383 13.98146788 10.92036513 15.21044922 12.15820312 C17.08997067 14.04185913 19.00144451 15.88820801 20.91748047 17.73461914 C22.1227134 18.93237156 23.32591008 20.13217717 24.52685547 21.33422852 C25.09862518 21.88039322 25.6703949 22.42655792 26.25949097 22.98927307 C29.00799014 25.81969136 30.61472144 27.97885169 30.93408203 31.98657227 C30.54720899 36.8415202 27.92350242 39.39437783 24.52685547 42.63891602 C23.9417923 43.22451797 23.35672913 43.81011993 22.75393677 44.41346741 C21.51750652 45.64222351 20.27130702 46.86121821 19.01611328 48.07080078 C17.10099525 49.92037597 15.22298554 51.80231474 13.34716797 53.69165039 C12.13827181 54.88447799 10.92739729 56.07530458 9.71435547 57.26391602 C9.15473114 57.82425034 8.59510681 58.38458466 8.01852417 58.9618988 C4.60377183 62.21578575 2.16155933 63.96269579 -2.77783203 63.98657227 C-5.71533203 61.92407227 -5.71533203 61.92407227 -7.77783203 58.98657227 C-7.89111543 54.59998743 -6.52827905 52.40646142 -3.61767578 49.33813477 C-2.3294454 48.08293593 -1.02817801 46.84100184 0.28466797 45.61157227 C0.94789063 44.9709082 1.61111328 44.33024414 2.29443359 43.67016602 C3.92626553 42.09703307 5.56859193 40.53677992 7.22216797 38.98657227 C6.48967331 38.98292664 5.75717865 38.97928101 5.00248718 38.9755249 C-1.89869707 38.93766713 -8.79949209 38.88083995 -15.70032978 38.80266953 C-19.24823679 38.76315009 -22.79589399 38.73098406 -26.34399414 38.71557617 C-30.42260742 38.69754309 -34.50028641 38.64761288 -38.57861328 38.59594727 C-39.8536824 38.59471863 -41.12875153 38.59348999 -42.44245911 38.59222412 C-43.62345688 38.57250549 -44.80445465 38.55278687 -46.02124023 38.5324707 C-47.58344048 38.51914703 -47.58344048 38.51914703 -49.17720032 38.5055542 C-51.77783203 37.98657227 -51.77783203 37.98657227 -53.64933777 36.14776611 C-55.24300553 33.09571253 -54.69594977 31.23529657 -53.77783203 27.98657227 C-51.12387673 25.33261697 -49.842582 25.71505844 -46.13476562 25.66772461 C-44.95369232 25.64785492 -43.77261902 25.62798523 -42.55575562 25.60751343 C-41.27552521 25.59596222 -39.9952948 25.58441101 -38.67626953 25.57250977 C-37.36953278 25.55314362 -36.06279602 25.53377747 -34.71646118 25.51382446 C-31.24116095 25.46243057 -27.76582191 25.42284404 -24.29034424 25.38568115 C-20.74440862 25.34568673 -17.19863541 25.29457367 -13.65283203 25.24438477 C-6.69461727 25.1475398 0.26370162 25.06316261 7.22216797 24.98657227 C6.80330322 24.5938916 6.38443848 24.20121094 5.95288086 23.79663086 C4.05025238 21.9983682 2.16759019 20.18044951 0.28466797 18.36157227 C-0.3746875 17.74411133 -1.03404297 17.12665039 -1.71337891 16.49047852 C-4.67237102 13.607358 -6.54812125 11.68995674 -7.84814453 7.70922852 C-7.77783203 4.98657227 -7.77783203 4.98657227 -5.71533203 2.04907227 C-2.77783203 -0.01342773 -2.77783203 -0.01342773 0 0 Z " fill="#212123" transform="translate(471.77783203125,224.013427734375)"/>
<path d="M0 0 C1.9375 1.6875 1.9375 1.6875 3 4 C3.01274986 8.37957737 1.76291179 10.57785847 -1.16015625 13.6484375 C-2.44838664 14.90363634 -3.74965402 16.14557043 -5.0625 17.375 C-5.72572266 18.01566406 -6.38894531 18.65632813 -7.07226562 19.31640625 C-8.70409756 20.8895392 -10.34642396 22.44979234 -12 24 C-11.26750534 24.00364563 -10.53501068 24.00729126 -9.78031921 24.01104736 C-2.87913496 24.04890514 4.02166006 24.10573232 10.92249775 24.18390274 C14.47040476 24.22342218 18.01806195 24.2555882 21.56616211 24.27099609 C25.64477538 24.28902918 29.72245438 24.33895939 33.80078125 24.390625 C35.07585037 24.39185364 36.35091949 24.39308228 37.66462708 24.39434814 C39.43612373 24.42392609 39.43612373 24.42392609 41.2434082 24.45410156 C42.80560844 24.46742523 42.80560844 24.46742523 44.39936829 24.48101807 C47 25 47 25 48.87150574 26.83880615 C50.4651735 29.89085973 49.91811774 31.75127569 49 35 C46.3460447 37.6539553 45.06474997 37.27151383 41.35693359 37.31884766 C40.17586029 37.33871735 38.99478699 37.35858704 37.77792358 37.37905884 C36.49769318 37.39061005 35.21746277 37.40216125 33.8984375 37.4140625 C32.59170074 37.43342865 31.28496399 37.4527948 29.93862915 37.4727478 C26.46332891 37.5241417 22.98798988 37.56372822 19.51251221 37.60089111 C15.96657659 37.64088553 12.42080338 37.69199859 8.875 37.7421875 C1.91678524 37.83903247 -5.04153365 37.92340966 -12 38 C-11.58113525 38.39268066 -11.16227051 38.78536133 -10.73071289 39.18994141 C-8.82808441 40.98820407 -6.94542222 42.80612276 -5.0625 44.625 C-4.40314453 45.24246094 -3.74378906 45.85992187 -3.06445312 46.49609375 C-0.10546102 49.37921427 1.77028922 51.29661552 3.0703125 55.27734375 C3 58 3 58 0.9375 60.9375 C-2 63 -2 63 -4.77783203 62.98657227 C-9.07620941 61.67048324 -11.36044497 59.4130595 -14.4921875 56.27734375 C-15.08299103 55.69843887 -15.67379456 55.119534 -16.28250122 54.52308655 C-17.52414314 53.29794844 -18.75929991 52.06620713 -19.98828125 50.82836914 C-21.8678027 48.94471314 -23.77927654 47.09836425 -25.6953125 45.25195312 C-26.90054543 44.0542007 -28.10374211 42.8543951 -29.3046875 41.65234375 C-29.87645721 41.10617905 -30.44822693 40.56001434 -31.037323 39.99729919 C-33.78390388 37.16885637 -35.3940846 35.00405794 -35.72070312 31 C-35.33078034 26.1031018 -32.61804672 23.57611145 -29.1640625 20.34765625 C-28.56951263 19.76205429 -27.97496277 19.17645233 -27.36239624 18.57310486 C-25.46793747 16.71662715 -23.54725512 14.89013509 -21.625 13.0625 C-20.33937729 11.80845114 -19.05550202 10.55260819 -17.7734375 9.29492188 C-6.47859536 -1.71881101 -6.47859536 -1.71881101 0 0 Z " fill="#212123" transform="translate(45,225)"/>
<path d="M0 0 C3.72457062 1.04367399 5.99727516 3.50634368 8.61302185 6.24472046 C9.19862381 6.82978363 9.78422577 7.4148468 10.38757324 8.01763916 C11.61632935 9.2540694 12.83532405 10.50026891 14.04490662 11.75546265 C15.8944818 13.67058068 17.77642058 15.54859039 19.66575623 17.42440796 C20.85858382 18.63330411 22.04941042 19.84417864 23.23802185 21.05722046 C23.79835617 21.61684479 24.35869049 22.17646912 24.93600464 22.75305176 C28.18989159 26.1678041 29.93680163 28.61001659 29.9606781 33.54940796 C27.8981781 36.48690796 27.8981781 36.48690796 24.9606781 38.54940796 C20.57409327 38.66269135 18.38056726 37.29985497 15.3122406 34.38925171 C14.05704176 33.10102132 12.81510767 31.79975394 11.5856781 30.48690796 C10.94501404 29.8236853 10.30434998 29.16046265 9.64427185 28.47714233 C8.0711389 26.8453104 6.51088576 25.202984 4.9606781 23.54940796 C4.95703247 24.28190262 4.95338684 25.01439728 4.94963074 25.76908875 C4.91177297 32.670273 4.85494578 39.57106802 4.77677536 46.47190571 C4.73725592 50.01981272 4.7050899 53.56746991 4.68968201 57.11557007 C4.67164892 61.19418334 4.62171871 65.27186234 4.5700531 69.35018921 C4.56882446 70.62525833 4.56759583 71.90032745 4.56632996 73.21403503 C4.54661133 74.39503281 4.5268927 75.57603058 4.50657654 76.79281616 C4.49325287 78.3550164 4.49325287 78.3550164 4.47966003 79.94877625 C3.9606781 82.54940796 3.9606781 82.54940796 2.12187195 84.4209137 C-0.93018163 86.01458145 -2.79059759 85.4675257 -6.0393219 84.54940796 C-8.6932772 81.89545266 -8.31083573 80.61415793 -8.35816956 76.90634155 C-8.37803925 75.72526825 -8.39790894 74.54419495 -8.41838074 73.32733154 C-8.42993195 72.04710114 -8.44148315 70.76687073 -8.4533844 69.44784546 C-8.47275055 68.1411087 -8.4921167 66.83437195 -8.5120697 65.48803711 C-8.5634636 62.01273687 -8.60305012 58.53739783 -8.64021301 55.06192017 C-8.68020743 51.51598455 -8.73132049 47.97021134 -8.7815094 44.42440796 C-8.87835437 37.4661932 -8.96273156 30.50787431 -9.0393219 23.54940796 C-9.43200256 23.96827271 -9.82468323 24.38713745 -10.22926331 24.81869507 C-12.02752597 26.72132355 -13.84544466 28.60398574 -15.6643219 30.48690796 C-16.28178284 31.14626343 -16.89924377 31.8056189 -17.53541565 32.48495483 C-20.41853617 35.44394694 -22.33593742 37.31969718 -26.31666565 38.61972046 C-29.0393219 38.54940796 -29.0393219 38.54940796 -31.9768219 36.48690796 C-34.0393219 33.54940796 -34.0393219 33.54940796 -34.02589417 30.77157593 C-32.70980514 26.47319855 -30.4523814 24.18896299 -27.31666565 21.05722046 C-26.73776077 20.46641693 -26.1588559 19.8756134 -25.56240845 19.26690674 C-24.33727034 18.02526482 -23.10552903 16.79010805 -21.86769104 15.56112671 C-19.98403503 13.68160526 -18.13768615 11.77013142 -16.29127502 9.85409546 C-15.0935226 8.64886253 -13.893717 7.44566585 -12.69166565 6.24472046 C-12.14550095 5.67295074 -11.59933624 5.10118103 -11.03662109 4.51208496 C-7.58002888 1.15553485 -4.90917402 -0.39119412 0 0 Z " fill="#212123" transform="translate(258.03932189941406,9.450592041015625)"/>
<path d="M0 0 C1.62808594 -0.0299707 1.62808594 -0.0299707 3.2890625 -0.06054688 C13.38040291 -0.05445307 20.44701262 2.61847772 27.82421875 9.5078125 C31.21879966 13.14538944 34.60858907 16.79534076 34.640625 21.953125 C32.57715741 27.00068419 26.28355043 28.65119751 21.49414062 30.68896484 C6.06958457 36.86604019 -9.73124853 35.28353111 -24.80078125 29.01171875 C-32.00316981 25.39651204 -32.00316981 25.39651204 -33.3125 22.01953125 C-33.42896856 17.20792403 -30.31931361 14.01974823 -27.375 10.4375 C-19.01426261 1.6722108 -11.84757201 -0.07684156 0 0 Z " fill="#2EAFD1" transform="translate(255.375,279.5625)"/>
<path d="M0 0 C6.33058005 2.81772877 10.64362303 7.91952527 14.1796875 13.76171875 C15.79593231 21.30419455 15.12423237 27.32732134 11.37109375 34.1171875 C7.99239212 38.82468306 3.51956424 42.37220712 -2.2578125 43.38671875 C-9.20575379 44.08151288 -14.81482605 44.11762769 -20.57421875 39.87890625 C-25.50869434 35.50542672 -28.76561074 31.04037028 -29.6640625 24.37109375 C-29.86335571 17.495478 -29.3844198 12.78880059 -25.1171875 7.26171875 C-18.13636739 0.22223629 -9.74143574 -2.64603012 0 0 Z " fill="#F6CDB2" transform="translate(425.2578125,63.61328125)"/>
<path d="M0 0 C6.04396793 3.74441111 9.14657977 8.71503454 12.2578125 14.9375 C12.98887274 22.0563489 12.66782184 28.11481357 8.2578125 33.9375 C2.96267507 39.53111073 -1.64316043 42.89061262 -9.4296875 43.375 C-16.18909017 43.20374837 -21.92014865 40.82822945 -26.66796875 35.96484375 C-32.02114901 29.12963745 -32.7125714 22.52760296 -31.7421875 13.9375 C-29.34160797 7.61528409 -24.621107 3.35753385 -18.9765625 -0.1640625 C-13.23070946 -2.47445795 -5.7208533 -2.21662692 0 0 Z " fill="#F6CDB2" transform="translate(427.7421875,388.0625)"/>
<path d="M0 0 C6.1573405 2.79770423 11.06557015 8.06275848 13.57421875 14.3515625 C14.50378953 22.91085709 13.36060771 28.67042905 9.01171875 35.9765625 C4.13472847 40.72850174 -1.69751847 43.61793386 -8.55078125 43.9140625 C-15.77512815 43.47313992 -20.46177707 40.69206912 -25.30078125 35.4140625 C-29.87836841 30.05935008 -30.95535809 25.12586189 -30.796875 18.19921875 C-30.05913423 12.53802903 -27.58756252 8.31493937 -23.3828125 4.49609375 C-16.16775505 -1.03676452 -9.05200884 -2.41969963 0 0 Z " fill="#F6CDB2" transform="translate(102.42578125,387.6484375)"/>
<path d="M0 0 C4.70939953 3.38006816 8.25044408 7.85046516 9.26953125 13.62890625 C9.94584245 20.76897861 9.67518313 26.75898524 5.26953125 32.62890625 C1.35694927 36.70489073 -2.73199715 40.30326124 -8.5 40.9296875 C-16.25412644 40.95954935 -20.7022688 40.02664431 -27.35546875 36.06640625 C-32.10740799 31.18941597 -34.99684011 25.35716903 -35.29296875 18.50390625 C-34.85204617 11.27955935 -32.07097537 6.59291043 -26.79296875 1.75390625 C-18.34793048 -5.04861081 -9.48129699 -5.2408429 0 0 Z " fill="#F6CDB2" transform="translate(106.73046875,66.37109375)"/>
<path d="M0 0 C4.46215838 2.07807057 7.21245241 4.86790033 10 8.875 C11.81268183 14.53963071 11.7578338 18.90207485 9.3125 24.25 C7.04824738 28.35143979 4.19903639 30.90048181 0 33 C-5.53042052 33.50502343 -10.41030524 33.73807257 -15.5 31.375 C-20.17583712 26.93295473 -22.72064392 22.74700148 -23.375 16.3125 C-23.28159077 9.97234864 -19.81908041 5.77471259 -15.4375 1.5 C-10.25439183 -0.76171993 -5.55753156 -0.96146024 0 0 Z " fill="#F5CDB1" transform="translate(262,232)"/>
</svg>
